<svg width="302" height="240" viewBox="0 0 302 240" fill="none" xmlns="http://www.w3.org/2000/svg">
<path d="M0.915249 192.176C0.830532 193.278 1.65465 194.239 2.75596 194.324L20.7029 195.704C21.8043 195.789 22.7657 194.965 22.8504 193.864C22.9352 192.762 22.111 191.801 21.0097 191.716L5.05686 190.489L6.284 174.536C6.36872 173.435 5.5446 172.473 4.44329 172.389C3.34197 172.304 2.3805 173.128 2.29579 174.229L0.915249 192.176ZM29.7009 166.731L1.60778 190.811L4.21094 193.848L32.304 169.769L29.7009 166.731Z" fill="#96D4E5"/>
<path d="M299.894 74.6064C282.218 95.7756 254.978 111.353 243.568 116.496C191.496 123.462 78.4907 143.061 43.0425 165.725" stroke="#96D4E5" stroke-width="4" stroke-dasharray="8 8"/>
</svg>
