<svg width="230" height="46" viewBox="0 0 230 46" fill="none" xmlns="http://www.w3.org/2000/svg">
<path d="M228.166 38.3184C229.171 37.8596 229.614 36.6731 229.155 35.6684L221.679 19.2943C221.22 18.2895 220.034 17.8468 219.029 18.3056C218.024 18.7644 217.582 19.9508 218.041 20.9556L224.686 35.5103L210.131 42.1556C209.126 42.6144 208.684 43.8008 209.142 44.8056C209.601 45.8104 210.788 46.2531 211.792 45.7943L228.166 38.3184ZM184.965 22.8258L226.637 38.3729L228.035 34.6252L186.363 19.0781L184.965 22.8258Z" fill="#FDD298"/>
<path d="M0.180908 2.49194C23.5918 1.15418 145.328 7.17412 174.09 18.5451" stroke="#FDD298" stroke-width="4" stroke-dasharray="8 8"/>
</svg>
