<svg width="271" height="216" viewBox="0 0 271 216" fill="none" xmlns="http://www.w3.org/2000/svg">
<path d="M269.757 143.072C270.506 142.26 270.455 140.994 269.643 140.245L256.414 128.04C255.602 127.291 254.336 127.342 253.587 128.154C252.838 128.965 252.889 130.231 253.701 130.98L265.461 141.829L254.611 153.589C253.862 154.401 253.913 155.666 254.725 156.415C255.537 157.164 256.802 157.113 257.551 156.301L269.757 143.072ZM229.086 145.295L268.367 143.714L268.207 139.717L228.925 141.298L229.086 145.295Z" fill="#F19E94"/>
<path d="M218.303 145.729C208.225 148.746 165.616 164.95 135.605 148.899C105.593 132.849 95.5547 97.9302 81.2614 84.2574C62.4838 66.2951 20.5222 72.5691 0.24728 70.0522" stroke="#F19E94" stroke-width="4" stroke-dasharray="8 8"/>
</svg>
