<svg width="136" height="136" viewBox="0 0 136 136" fill="none" xmlns="http://www.w3.org/2000/svg">
<path d="M64.8829 1.90161H71.5271C71.5989 2.05726 71.7546 1.99739 71.8743 2.00937C76.5672 2.26079 81.1763 2.99112 85.7135 4.24825C97.8168 7.60059 108.208 13.8503 116.72 23.0812C127.554 34.8144 133.42 48.7147 134.33 64.6623C134.785 72.7198 133.816 80.6098 131.302 88.2723C125.902 104.687 115.679 117.222 100.702 125.819C92.693 130.428 84.0255 133.086 74.8193 134.008C69.3004 134.559 63.8054 134.427 58.3224 133.601C51.9415 132.643 45.836 130.787 40.0058 128.034C30.5242 123.544 22.5272 117.174 16.0745 108.913C8.18517 98.8083 3.60003 87.3624 2.33103 74.5996C1.62471 67.4878 2.04371 60.4479 3.63594 53.4918C6.43731 41.2437 12.2076 30.5881 21.0667 21.6804C33.0024 9.63595 47.524 3.09888 64.4878 2.00937C64.6195 2.00937 64.7871 2.06923 64.8829 1.90161ZM58.6337 36.9216C58.5259 36.9216 58.4182 36.9216 58.2985 36.9216C50.5767 36.9695 42.9029 37.5562 35.3129 39.0288C32.3799 39.5915 29.4707 40.238 26.6335 41.1959C23.4251 42.2734 21.7131 45.6976 22.7307 48.8943C23.7363 52.067 27.0644 53.9228 30.2848 52.9889C36.3305 51.2409 42.4959 50.2232 48.7571 49.7204C54.5753 49.2535 60.4055 49.2056 66.2237 49.5647C72.0658 49.9239 77.8601 50.6543 83.5826 51.8635C91.8909 53.6354 99.8999 56.2455 107.274 60.5676C108.196 61.1064 109.178 61.4416 110.255 61.4775C113.129 61.5733 115.655 59.7774 116.457 57.0836C117.271 54.3418 116.181 51.4804 113.679 49.9718C111.261 48.5111 108.747 47.242 106.173 46.0927C95.5781 41.4114 84.4206 38.9211 72.9398 37.6879C68.187 37.185 63.4103 36.9456 58.6337 36.9336V36.9216ZM56.79 59.7176C52.5401 59.7535 48.0148 60.0288 43.5135 60.6634C39.1678 61.274 34.8819 62.1839 30.6799 63.453C27.5074 64.4108 26.0109 67.847 27.4834 70.7563C28.6567 73.079 31.1827 74.0608 33.9481 73.2466C40.9396 71.1874 48.0986 70.2176 55.3774 70.0978C61.9857 69.9901 68.5222 70.5648 74.9989 71.8578C81.2002 73.091 87.198 74.9228 92.9564 77.5568C95.3148 78.6343 97.5654 79.9394 99.84 81.1965C101.72 82.2381 103.635 82.0705 105.347 80.7894C107.083 79.4964 107.729 77.6885 107.298 75.5574C106.963 73.8812 105.886 72.7917 104.461 71.9416C99.3732 68.9125 94.0099 66.518 88.3952 64.6623C78.2312 61.3099 67.78 59.7415 56.802 59.6936L56.79 59.7176ZM57.3647 81.3282C54.4915 81.3282 50.3014 81.5557 46.1233 82.0585C41.6698 82.5853 37.2643 83.3516 32.8946 84.3692C30.5841 84.908 29.2792 87.0511 29.794 89.3259C30.2848 91.5169 32.4637 92.8818 34.7502 92.3909C39.4311 91.3613 44.148 90.5232 48.9247 90.0562C53.8211 89.5773 58.7175 89.4456 63.6258 89.8048C67.6842 90.0922 71.6827 90.6788 75.6334 91.6486C81.7629 93.1452 87.5212 95.5278 92.9204 98.7843C94.9436 100.006 97.4457 99.347 98.607 97.3715C99.7802 95.3841 99.1457 92.9297 97.1345 91.6965C91.6754 88.3681 85.8572 85.8658 79.7037 84.1537C72.844 82.2501 65.8406 81.3881 57.3766 81.3162L57.3647 81.3282Z" stroke="#35A062" stroke-width="2.5" stroke-miterlimit="10"/>
</svg>
